<svg width="86" height="14" viewBox="0 0 86 14" fill="none" xmlns="http://www.w3.org/2000/svg">
<path d="M11.0756 13.9572L7.12208 10.9416C7.04927 10.8861 6.95079 10.8861 6.87797 10.9416L2.92446 13.9572C2.76169 14.0813 2.54273 13.9143 2.60486 13.7135L4.11491 8.83435C4.14274 8.74454 4.11221 8.64613 4.03951 8.59064L0.0859977 5.57503C-0.0767736 5.45091 0.00693041 5.18061 0.208105 5.18061H5.1386C5.20257 5.18061 5.2592 5.13735 5.27894 5.07359L6.80246 0.150673C6.86459 -0.0502243 7.13535 -0.0502243 7.19748 0.150673L8.72112 5.07359C8.74086 5.13746 8.79749 5.18061 8.86145 5.18061H13.7919C13.9931 5.18061 14.0767 5.45092 13.9141 5.57503L9.9252 8.61761C9.87353 8.65702 9.85185 8.727 9.87159 8.79076L11.3952 13.7137C11.4574 13.9145 11.2383 14.0815 11.0756 13.9574L11.0756 13.9572Z" fill="#FFB400"/>
<path d="M29.0756 13.9572L25.1221 10.9416C25.0493 10.8861 24.9508 10.8861 24.878 10.9416L20.9245 13.9572C20.7617 14.0813 20.5427 13.9143 20.6049 13.7135L22.1149 8.83435C22.1427 8.74454 22.1122 8.64613 22.0395 8.59064L18.086 5.57503C17.9232 5.45091 18.0069 5.18061 18.2081 5.18061H23.1386C23.2026 5.18061 23.2592 5.13735 23.2789 5.07359L24.8025 0.150673C24.8646 -0.0502243 25.1353 -0.0502243 25.1975 0.150673L26.7211 5.07359C26.7409 5.13746 26.7975 5.18061 26.8615 5.18061H31.7919C31.9931 5.18061 32.0767 5.45092 31.9141 5.57503L27.9252 8.61761C27.8735 8.65702 27.8519 8.727 27.8716 8.79076L29.3952 13.7137C29.4574 13.9145 29.2383 14.0815 29.0756 13.9574L29.0756 13.9572Z" fill="#FFB400"/>
<path d="M47.0756 13.9572L43.1221 10.9416C43.0493 10.8861 42.9508 10.8861 42.878 10.9416L38.9245 13.9572C38.7617 14.0813 38.5427 13.9143 38.6049 13.7135L40.1149 8.83435C40.1427 8.74454 40.1122 8.64613 40.0395 8.59064L36.086 5.57503C35.9232 5.45091 36.0069 5.18061 36.2081 5.18061H41.1386C41.2026 5.18061 41.2592 5.13735 41.2789 5.07359L42.8025 0.150673C42.8646 -0.0502243 43.1353 -0.0502243 43.1975 0.150673L44.7211 5.07359C44.7409 5.13746 44.7975 5.18061 44.8615 5.18061H49.7919C49.9931 5.18061 50.0767 5.45092 49.9141 5.57503L45.9252 8.61761C45.8735 8.65702 45.8519 8.727 45.8716 8.79076L47.3952 13.7137C47.4574 13.9145 47.2383 14.0815 47.0756 13.9574L47.0756 13.9572Z" fill="#FFB400"/>
<path d="M65.0756 13.9572L61.1221 10.9416C61.0493 10.8861 60.9508 10.8861 60.878 10.9416L56.9245 13.9572C56.7617 14.0813 56.5427 13.9143 56.6049 13.7135L58.1149 8.83435C58.1427 8.74454 58.1122 8.64613 58.0395 8.59064L54.086 5.57503C53.9232 5.45091 54.0069 5.18061 54.2081 5.18061H59.1386C59.2026 5.18061 59.2592 5.13735 59.2789 5.07359L60.8025 0.150673C60.8646 -0.0502243 61.1353 -0.0502243 61.1975 0.150673L62.7211 5.07359C62.7409 5.13746 62.7975 5.18061 62.8615 5.18061H67.7919C67.9931 5.18061 68.0767 5.45092 67.9141 5.57503L63.9252 8.61761C63.8735 8.65702 63.8519 8.727 63.8716 8.79076L65.3952 13.7137C65.4574 13.9145 65.2383 14.0815 65.0756 13.9574L65.0756 13.9572Z" fill="#FFB400"/>
<path d="M83.0756 13.9572L79.1221 10.9416C79.0493 10.8861 78.9508 10.8861 78.878 10.9416L74.9245 13.9572C74.7617 14.0813 74.5427 13.9143 74.6049 13.7135L76.1149 8.83435C76.1427 8.74454 76.1122 8.64613 76.0395 8.59064L72.086 5.57503C71.9232 5.45091 72.0069 5.18061 72.2081 5.18061H77.1386C77.2026 5.18061 77.2592 5.13735 77.2789 5.07359L78.8025 0.150673C78.8646 -0.0502243 79.1353 -0.0502243 79.1975 0.150673L80.7211 5.07359C80.7409 5.13746 80.7975 5.18061 80.8615 5.18061H85.7919C85.9931 5.18061 86.0767 5.45092 85.9141 5.57503L81.9252 8.61761C81.8735 8.65702 81.8519 8.727 81.8716 8.79076L83.3952 13.7137C83.4574 13.9145 83.2383 14.0815 83.0756 13.9574L83.0756 13.9572Z" fill="#FFB400"/>
</svg>
