<svg width="91" height="29" viewBox="0 0 91 29" fill="none" xmlns="http://www.w3.org/2000/svg">
<path d="M9.31756 20V8.8H11.1576V20H9.31756ZM10.5816 20V18.32H16.4376V20H10.5816Z" fill="#A2A5AD"/>
<path d="M45.8907 20.16C45.0054 20.16 44.2534 20 43.6347 19.68C43.016 19.36 42.4614 18.8907 41.9707 18.272L43.2187 17.024C43.528 17.472 43.896 17.824 44.3227 18.08C44.7494 18.3253 45.2934 18.448 45.9547 18.448C46.5734 18.448 47.064 18.32 47.4267 18.064C47.8 17.808 47.9867 17.456 47.9867 17.008C47.9867 16.6347 47.8907 16.3307 47.6987 16.096C47.5067 15.8613 47.2507 15.6693 46.9307 15.52C46.6214 15.36 46.2747 15.2213 45.8907 15.104C45.5174 14.976 45.1387 14.8373 44.7547 14.688C44.3814 14.528 44.0347 14.3307 43.7147 14.096C43.4054 13.8613 43.1547 13.5573 42.9627 13.184C42.7707 12.8107 42.6747 12.336 42.6747 11.76C42.6747 11.0987 42.8347 10.5387 43.1547 10.08C43.4854 9.61067 43.928 9.25333 44.4827 9.008C45.0374 8.76267 45.656 8.64 46.3387 8.64C47.0747 8.64 47.7307 8.784 48.3067 9.072C48.8934 9.36 49.368 9.728 49.7307 10.176L48.4827 11.424C48.1627 11.0613 47.8267 10.7947 47.4747 10.624C47.1334 10.4427 46.7387 10.352 46.2907 10.352C45.736 10.352 45.2987 10.464 44.9787 10.688C44.6694 10.912 44.5147 11.2267 44.5147 11.632C44.5147 11.9733 44.6107 12.2507 44.8027 12.464C44.9947 12.6667 45.2454 12.8427 45.5547 12.992C45.8747 13.1307 46.2214 13.264 46.5947 13.392C46.9787 13.52 47.3574 13.664 47.7307 13.824C48.1147 13.984 48.4614 14.192 48.7707 14.448C49.0907 14.6933 49.3467 15.0133 49.5387 15.408C49.7307 15.8027 49.8267 16.2987 49.8267 16.896C49.8267 17.8987 49.4694 18.6933 48.7547 19.28C48.0507 19.8667 47.096 20.16 45.8907 20.16Z" fill="#A2A5AD"/>
<path d="M77.765 21L74.469 16.008H74.133L69.701 9.8H71.877L75.189 14.504H75.525L79.909 21H77.765ZM69.509 21L73.765 15.016L75.029 16.088L71.573 21H69.509ZM75.653 15.64L74.389 14.568L77.653 9.8H79.717L75.653 15.64ZM81.2941 21V9.8H83.1341V21H81.2941ZM82.5581 21V19.32H88.4141V21H82.5581Z" fill="#A2A5AD"/>
<rect x="67.4" y="2.4" width="23.2" height="24.2" rx="1.6" stroke="#A5A9B3" stroke-width="0.8"/>
<rect x="34.4" y="2.4" width="24.2" height="24.2" rx="1.6" stroke="#A5A9B3" stroke-width="0.8"/>
<rect x="0.4" y="2.4" width="23.2" height="24.2" rx="1.6" stroke="#A5A9B3" stroke-width="0.8"/>
</svg>
