<svg width="848" height="58" viewBox="0 0 848 58" fill="none" xmlns="http://www.w3.org/2000/svg">
<path d="M38.5989 0L37.485 1.30772C31.2617 8.40933 28.2349 19.7731 28.6223 30.9977L28.6707 32.0632L27.2662 30.0774C21.5636 21.5107 12.9188 16.9034 2.03407 14.9661L0 14.5786L0.193721 16.6613C0.780938 22.3765 2.02197 27.0322 3.97128 31.5305L4.35873 32.4991H5.37576L26.0071 32.4507H28.6707V32.4991H73.2266L73.614 31.5789C75.6663 27.1169 76.992 22.2978 77.6822 16.7097L77.9243 14.6755L75.8903 15.0145C64.7937 16.6976 55.9794 21.5228 49.9316 30.029L48.624 31.8695L48.6724 31.0461C49.2173 19.5915 46.0996 8.19744 39.7613 1.25928L38.5989 0ZM38.6474 5.08556C43.1272 10.9884 45.6879 19.9729 45.5245 29.3994H31.7703C31.7279 20.1667 34.2402 11.1156 38.6474 5.08556ZM3.6807 18.5986C11.6959 20.3725 18.004 23.7387 22.6654 29.3509L6.48966 29.3994C5.14572 26.1059 4.25581 22.5823 3.6807 18.5986ZM74.1468 18.5986C73.499 22.552 72.5607 26.1361 71.1441 29.3994H54.6294C59.5571 23.7205 65.9923 20.2272 74.1468 18.5986ZM5.61791 36.4707C6.20513 37.7482 7.16768 39.3465 7.991 40.4907L69.449 40.4423C70.345 39.1891 71.2046 37.8995 71.8221 36.4707H5.61791ZM10.8484 44.5592C12.1197 46.2423 13.2336 46.9264 14.8197 48.1917H62.3782C63.7161 47.1504 65.1085 45.9214 66.3495 44.5592H10.8484ZM19.8564 51.5337C23.9185 54.0462 28.6828 55.6929 34.0949 56.813L33.4653 51.5337H19.8564ZM34.7729 51.5337C35.8202 53.7132 37.1702 55.5416 38.6958 57.2973C40.1971 55.5113 41.2202 53.6829 42.2796 51.5337H34.7729ZM43.8294 51.5337L43.0061 56.5224C48.4424 55.5234 53.2309 53.9433 57.3899 51.5337H43.8294Z" fill="#C5CAD9"/>
<path d="M638.311 0L637.197 1.30772C630.973 8.40933 627.947 19.7731 628.334 30.9977L628.382 32.0632L626.978 30.0774C621.275 21.5107 612.63 16.9034 601.746 14.9661L599.712 14.5786L599.905 16.6613C600.493 22.3765 601.734 27.0322 603.683 31.5305L604.07 32.4991H605.087L625.719 32.4507H628.382V32.4991H672.938L673.326 31.5789C675.378 27.1169 676.704 22.2978 677.394 16.7097L677.636 14.6755L675.602 15.0145C664.505 16.6976 655.691 21.5228 649.643 30.029L648.336 31.8695L648.384 31.0461C648.929 19.5915 645.811 8.19744 639.473 1.25928L638.311 0ZM638.359 5.08556C642.839 10.9884 645.4 19.9729 645.236 29.3994H631.482C631.44 20.1667 633.952 11.1156 638.359 5.08556ZM603.392 18.5986C611.408 20.3725 617.716 23.7387 622.377 29.3509L606.201 29.3994C604.857 26.1059 603.967 22.5823 603.392 18.5986ZM673.858 18.5986C673.211 22.552 672.272 26.1361 670.856 29.3994H654.341C659.269 23.7205 665.704 20.2272 673.858 18.5986ZM605.33 36.4707C605.917 37.7482 606.879 39.3465 607.703 40.4907L669.161 40.4423C670.057 39.1891 670.916 37.8995 671.534 36.4707H605.33ZM610.56 44.5592C611.831 46.2423 612.945 46.9264 614.531 48.1917H662.09C663.428 47.1504 664.82 45.9214 666.061 44.5592H610.56ZM619.568 51.5337C623.63 54.0462 628.395 55.6929 633.807 56.813L633.177 51.5337H619.568ZM634.485 51.5337C635.532 53.7132 636.882 55.5416 638.407 57.2973C639.909 55.5113 640.932 53.6829 641.991 51.5337H634.485ZM643.541 51.5337L642.718 56.5224C648.154 55.5234 652.943 53.9433 657.102 51.5337H643.541Z" fill="#C5CAD9"/>
<path fill-rule="evenodd" clip-rule="evenodd" d="M189.062 9.50838C181.505 18.4284 174.184 29.2 174.184 37.7643C174.184 42.7077 178.321 49.6577 188.427 49.6577C193.888 49.6577 199.313 47.4505 203.559 45.7449C210.717 42.8627 289.816 8.33181 289.816 8.33181C290.578 7.94874 290.442 7.46534 289.48 7.70248C289.099 7.80281 203.369 31.1609 203.369 31.1609C201.717 31.6261 200.03 31.8814 198.388 31.8814C190.976 31.8814 185.977 28.3061 185.977 20.4897C185.977 17.4616 186.921 13.8042 189.062 9.50838Z" fill="#C5CAD9"/>
<path d="M794.921 0C779.111 0 766.256 12.8435 766.256 28.6486C766.256 44.4538 779.111 57.2973 794.921 57.2973C799.297 57.2973 803.417 56.2428 807.131 54.49C810.844 56.2444 814.962 57.2973 819.335 57.2973C835.145 57.2973 848 44.4538 848 28.6486C848 12.8435 835.145 0 819.335 0C814.961 0 810.836 1.04719 807.122 2.80411C803.409 1.05012 799.291 0 794.921 0ZM794.921 3.27413C799.053 3.27413 802.946 4.25621 806.39 6.00151L807.125 6.37241L807.92 5.97593L807.923 5.97273C811.353 4.24452 815.225 3.27413 819.335 3.27413C833.382 3.27413 844.73 14.6167 844.73 28.6486C844.73 42.6806 833.382 54.0232 819.335 54.0232C815.203 54.0232 811.312 53.0396 807.869 51.2958L807.131 50.9249L806.394 51.2958C802.948 53.0385 799.056 54.0232 794.921 54.0232C780.874 54.0232 769.526 42.6806 769.526 28.6486C769.526 14.6167 780.874 3.27413 794.921 3.27413ZM794.921 6.54826C791.967 6.54826 789.145 7.12809 786.564 8.18213C778.493 11.4786 772.811 19.4133 772.811 28.6486C772.811 40.8375 782.732 50.749 794.924 50.749C797.108 50.749 799.223 50.4302 801.221 49.8378L803.944 49.032L801.878 47.0784C797.931 43.3471 795.286 38.3369 794.371 32.7413H802.223V36.0154H798.312L799.471 38.3751C801.032 41.5554 803.335 44.3045 806.154 46.3974L807.128 47.12L808.102 46.3974C810.92 44.302 813.22 41.5554 814.782 38.3751L815.941 36.0154H812.119V32.7413H819.884C818.97 38.337 816.323 43.3486 812.377 47.0816L810.311 49.0352L813.035 49.841C815.032 50.4314 817.15 50.749 819.335 50.749C831.527 50.749 841.448 40.8375 841.448 28.6486C841.448 16.4598 831.527 6.54826 819.335 6.54826C817.15 6.54826 815.033 6.86712 813.035 7.45952L810.315 8.26526L812.377 10.2189C813.734 11.5021 814.951 12.931 815.998 14.4842V14.4874C817.385 16.5433 818.371 18.859 819.112 21.2819L815.593 21.2882C814.119 17.169 811.614 13.5326 808.178 10.9575C808.162 10.945 808.116 10.9093 808.14 10.9287L807.157 10.1549L806.154 10.8999C802.683 13.4795 800.148 17.1379 798.663 21.2882L795.144 21.2819C795.884 18.8585 796.872 16.5439 798.261 14.4874V14.4842C799.308 12.931 800.522 11.5021 801.878 10.2189L803.944 8.26526L801.221 7.45952C799.222 6.86735 797.106 6.54826 794.921 6.54826ZM794.921 9.82239C795.86 9.82239 796.718 10.0804 797.619 10.2125C796.927 11.0258 796.149 11.7636 795.55 12.6521C793.552 15.6105 792.095 18.9639 791.316 22.5704L790.888 24.5528L800.895 24.5656L801.237 23.3825C802.264 19.8519 804.423 16.871 807.138 14.5258C809.847 16.8697 811.993 19.8555 813.019 23.3825L813.364 24.5656L823.371 24.5528L822.944 22.5704C822.163 18.9662 820.702 15.6105 818.706 12.6521C818.107 11.7636 817.329 11.0258 816.637 10.2125C817.537 10.0804 818.396 9.82239 819.335 9.82239C829.764 9.82239 838.178 18.2329 838.178 28.6486C838.178 39.0644 829.764 47.4749 819.335 47.4749C818.424 47.4749 817.59 47.2222 816.714 47.0976C820.423 42.7241 822.924 37.2905 823.467 31.2513L823.63 29.4672H808.849V39.2896H810.315C809.398 40.6094 808.345 41.7988 807.128 42.8451C805.911 41.7997 804.855 40.6103 803.938 39.2896H805.493V29.4672H790.626L790.785 31.2513C791.329 37.2907 793.828 42.7249 797.539 47.0976C796.665 47.222 795.833 47.4749 794.924 47.4749C784.495 47.4749 776.081 39.0644 776.081 28.6486C776.081 20.757 780.925 14.0198 787.797 11.2133C789.993 10.3159 792.394 9.82239 794.921 9.82239Z" fill="#C5CAD9"/>
<path d="M362.883 10.9975L363.141 13.2923L368.373 14.2973L376.475 17.6183L385.065 22.1625L391.095 25.5399L396.881 27.569L407.935 28.242L404.341 33.0922L401.843 40.5269H390.636L383.996 46.0531L376.688 50.542L376.626 52.6889L376.761 54.2412L378.909 53.9646L380.966 52.535L389.39 46.7482L407.05 47.378L414.543 41.385L418.505 39.5429L424.775 32.9554L428.976 31.3437L433.563 31.6354L438.799 33.5086L453.012 33.0056L457.517 29.8737L458.488 26.571V31.8044L459.949 33.9673L474.723 28.6464L476.459 27.9502L480.891 28.919L485.55 30.7611L488.091 32.0327L490.465 30.6535L489.095 28.073L477.84 23.4642L469.177 24.2942L467.853 23.925L471.871 17.8887L472.421 16.784L474.521 15.3565L475.162 16.9209L477.902 17.0134L480.872 15.932L481.511 16.5688L482.972 16.8132L485.531 14.1361L486.139 12.6362L483.46 9.443L483.339 7.84541L481.389 5.88062L476.396 4.89671L474.08 3.05566H472.741L472.498 4.40477L468.72 4.5275L465.189 6.73979L454.804 7.86051L445.394 13.1131L436.683 15.8304L431.199 17.919L422.551 19.7641L413.447 19.9643L404.553 21.9774L397.212 22.4663L391.608 20.9915L379.093 14.7289L371.629 12.0216L366.303 10.8596L362.883 10.9975Z" fill="#C5CAD9" stroke="#C5CAD9" stroke-width="3.81621" stroke-miterlimit="10"/>
</svg>
